<svg width="109" height="81" viewBox="0 0 109 81" fill="none" xmlns="http://www.w3.org/2000/svg">
<mask id="path-1-outside-1_9_55" maskUnits="userSpaceOnUse" x="7" y="0" width="102" height="66" fill="black">
<rect fill="white" x="7" width="102" height="66"/>
<path d="M64.5215 1C76.34 1 85.9561 10.3171 86.2539 21.9219L86.2607 22.4766L86.8223 22.4834C98.569 22.7776 108 32.2774 108 43.9531C108 53.7838 101.313 62.0688 92.1885 64.6182C99.1509 61.4161 104 54.2582 104 45.9395C104 34.6344 95.0456 25.4697 84 25.4697C84 14.1646 75.0457 5 64 5C57.2131 5 51.2163 8.46041 47.6006 13.751C46.4639 13.3855 45.2545 13.1875 44 13.1875C37.3726 13.1875 32 18.6867 32 25.4697C20.9544 25.4697 12.0001 34.6344 12 45.9395C12 54.2579 16.8486 61.416 23.8105 64.6182C14.6863 62.0685 8.00005 53.7835 8 43.9531C8 32.092 17.7331 22.4766 29.7393 22.4766L29.7432 22.1436C29.9219 15.1809 35.6914 9.59102 42.7822 9.59082C44.1458 9.59082 45.4608 9.79725 46.6963 10.1807C50.6264 4.63024 57.1447 1.00008 64.5215 1Z"/>
</mask>
<path d="M64.5215 1C76.34 1 85.9561 10.3171 86.2539 21.9219L86.2607 22.4766L86.8223 22.4834C98.569 22.7776 108 32.2774 108 43.9531C108 53.7838 101.313 62.0688 92.1885 64.6182C99.1509 61.4161 104 54.2582 104 45.9395C104 34.6344 95.0456 25.4697 84 25.4697C84 14.1646 75.0457 5 64 5C57.2131 5 51.2163 8.46041 47.6006 13.751C46.4639 13.3855 45.2545 13.1875 44 13.1875C37.3726 13.1875 32 18.6867 32 25.4697C20.9544 25.4697 12.0001 34.6344 12 45.9395C12 54.2579 16.8486 61.416 23.8105 64.6182C14.6863 62.0685 8.00005 53.7835 8 43.9531C8 32.092 17.7331 22.4766 29.7393 22.4766L29.7432 22.1436C29.9219 15.1809 35.6914 9.59102 42.7822 9.59082C44.1458 9.59082 45.4608 9.79725 46.6963 10.1807C50.6264 4.63024 57.1447 1.00008 64.5215 1Z" fill="white"/>
<path d="M64.5215 1L64.5215 0L64.5215 0L64.5215 1ZM86.2539 21.9219L87.2539 21.9096L87.2536 21.8962L86.2539 21.9219ZM86.2607 22.4766L85.2608 22.4889C85.2675 23.0316 85.7059 23.4699 86.2486 23.4765L86.2607 22.4766ZM86.8223 22.4834L86.8473 21.4836L86.8344 21.4835L86.8223 22.4834ZM108 43.9531L109 43.9531V43.9531H108ZM92.1885 64.6182L91.7706 63.7096C91.2968 63.9276 91.07 64.4731 91.2497 64.9627C91.4294 65.4523 91.9552 65.7216 92.4576 65.5813L92.1885 64.6182ZM104 45.9395L105 45.9395L105 45.9394L104 45.9395ZM84 25.4697L83 25.4697C83 26.022 83.4477 26.4697 84 26.4697V25.4697ZM64 5L64 4L64 4L64 5ZM47.6006 13.751L47.2945 14.703C47.716 14.8385 48.1764 14.6807 48.4262 14.3152L47.6006 13.751ZM44 13.1875L44 12.1875L44 12.1875L44 13.1875ZM32 25.4697L32 26.4697C32.5523 26.4697 33 26.022 33 25.4697L32 25.4697ZM12 45.9395L11 45.9394V45.9395H12ZM23.8105 64.6182L23.5414 65.5813C24.0437 65.7216 24.5696 65.4524 24.7493 64.9627C24.929 64.4731 24.7023 63.9276 24.2284 63.7097L23.8105 64.6182ZM8 43.9531L7 43.9531L7 43.9531L8 43.9531ZM29.7393 22.4766V23.4766C30.287 23.4766 30.7328 23.036 30.7392 22.4883L29.7393 22.4766ZM29.7432 22.1436L28.7434 22.1179L28.7432 22.1318L29.7432 22.1436ZM42.7822 9.59082L42.7822 8.59082L42.7822 8.59082L42.7822 9.59082ZM46.6963 10.1807L46.3999 11.1357C46.8133 11.264 47.2623 11.1118 47.5124 10.7585L46.6963 10.1807ZM64.5215 1V2C75.8074 2 84.9706 10.8945 85.2542 21.9475L86.2539 21.9219L87.2536 21.8962C86.9416 9.73966 76.8726 0 64.5215 0V1ZM86.2539 21.9219L85.254 21.9342L85.2608 22.4889L86.2607 22.4766L87.2607 22.4642L87.2538 21.9096L86.2539 21.9219ZM86.2607 22.4766L86.2486 23.4765L86.8101 23.4833L86.8223 22.4834L86.8344 21.4835L86.2729 21.4766L86.2607 22.4766ZM86.8223 22.4834L86.7972 23.4831C98.014 23.764 107 32.8323 107 43.9531H108H109C109 31.7225 99.124 21.7911 86.8473 21.4837L86.8223 22.4834ZM108 43.9531L107 43.9531C107 53.3161 100.631 61.2212 91.9194 63.655L92.1885 64.6182L92.4576 65.5813C101.996 62.9164 109 54.2515 109 43.9531L108 43.9531ZM92.1885 64.6182L92.6063 65.5267C99.9194 62.1634 105 54.6533 105 45.9395H104H103C103 53.8631 98.3824 60.6689 91.7706 63.7096L92.1885 64.6182ZM104 45.9395L105 45.9394C105 34.1041 95.6197 24.4697 84 24.4697V25.4697V26.4697C94.4716 26.4697 103 35.1646 103 45.9395L104 45.9395ZM84 25.4697L85 25.4697C85 13.6343 75.6197 4 64 4V5V6C74.4716 6 83 14.6949 83 25.4697L84 25.4697ZM64 5L64 4C56.8626 4 50.5654 7.64056 46.775 13.1867L47.6006 13.751L48.4262 14.3152C51.8673 9.28025 57.5635 6 64 6L64 5ZM47.6006 13.751L47.9067 12.799C46.673 12.4023 45.3604 12.1875 44 12.1875V13.1875V14.1875C45.1487 14.1875 46.2548 14.3687 47.2945 14.703L47.6006 13.751ZM44 13.1875L44 12.1875C36.7985 12.1875 31 18.1564 31 25.4697L32 25.4697L33 25.4697C33 19.2169 37.9467 14.1875 44 14.1875L44 13.1875ZM32 25.4697L32 24.4697C20.3803 24.4697 11.0001 34.1041 11 45.9394L12 45.9395L13 45.9395C13.0001 35.1646 21.5284 26.4697 32 26.4697L32 25.4697ZM12 45.9395H11C11 54.6529 16.08 62.1632 23.3927 65.5267L23.8105 64.6182L24.2284 63.7097C17.6171 60.6688 13 53.8629 13 45.9395H12ZM23.8105 64.6182L24.0797 63.6551C15.3689 61.221 9.00005 53.3158 9 43.9531L8 43.9531L7 43.9531C7.00005 54.2512 14.0037 62.9161 23.5414 65.5813L23.8105 64.6182ZM8 43.9531H9C9 32.6557 18.2739 23.4766 29.7393 23.4766V22.4766V21.4766C17.1923 21.4766 7 31.5283 7 43.9531H8ZM29.7393 22.4766L30.7392 22.4883L30.7431 22.1553L29.7432 22.1436L28.7432 22.1318L28.7393 22.4648L29.7393 22.4766ZM29.7432 22.1436L30.7428 22.1692C30.9074 15.7583 36.224 10.591 42.7823 10.5908L42.7822 9.59082L42.7822 8.59082C35.1588 8.59104 28.9364 14.6035 28.7435 22.1179L29.7432 22.1436ZM42.7822 9.59082V10.5908C44.0444 10.5908 45.2596 10.7818 46.3999 11.1357L46.6963 10.1807L46.9927 9.2256C45.6621 8.81266 44.2471 8.59082 42.7822 8.59082V9.59082ZM46.6963 10.1807L47.5124 10.7585C51.2613 5.46412 57.4797 2.00008 64.5215 2L64.5215 1L64.5215 0C56.8097 8.67359e-05 49.9916 3.79635 45.8802 9.60278L46.6963 10.1807Z" fill="white" mask="url(#path-1-outside-1_9_55)"/>
<line x1="1" y1="58" x2="65" y2="58" stroke="white" stroke-width="2" stroke-linecap="round"/>
<line x1="27" y1="65" x2="89" y2="65" stroke="white" stroke-width="2" stroke-linecap="round"/>
<line x1="1" y1="72" x2="65" y2="72" stroke="white" stroke-width="2" stroke-linecap="round"/>
<line x1="26" y1="80" x2="90" y2="80" stroke="white" stroke-width="2" stroke-linecap="round"/>
</svg>
